<svg width="32" height="32" viewBox="0 0 32 32" fill="none" xmlns="http://www.w3.org/2000/svg">
<circle opacity="0.5" cx="16" cy="16" r="16" fill="white"/>
<path d="M14.5441 9C14.5441 10.6569 13.2386 12 11.6281 12C10.0177 12 8.71218 10.6569 8.71218 9C8.71218 7.34315 10.0177 6 11.6281 6C13.2386 6 14.5441 7.34315 14.5441 9Z" fill="black"/>
<path d="M23.2864 9C23.2864 10.6569 21.9809 12 20.3704 12C18.76 12 17.4545 10.6569 17.4545 9C17.4545 7.34315 18.76 6 20.3704 6C21.9809 6 23.2864 7.34315 23.2864 9Z" fill="black"/>
<path d="M19.9499 13.5217C20.1229 13.1271 20.6708 13.1281 20.8425 13.5232L25.9573 25.2969C26.101 25.6276 25.8644 26 25.5107 26H15.233C14.8786 26 14.6421 25.6262 14.7871 25.2953L19.9499 13.5217Z" fill="black"/>
<path d="M11.1819 25.4775C11.3542 25.8724 11.9021 25.8724 12.0744 25.4775L17.2132 13.7039C17.3576 13.3731 17.121 13 16.767 13H6.48929C6.13525 13 5.89867 13.3731 6.04302 13.7039L11.1819 25.4775Z" fill="black"/>
</svg>
