<svg width="32" height="32" viewBox="0 0 32 32" fill="none" xmlns="http://www.w3.org/2000/svg">
<circle opacity="0.5" cx="16" cy="16" r="16" fill="white"/>
<path d="M25.821 15.43C25.738 15.311 23.759 12.486 21.028 10.555C19.612 9.552 17.826 9 16 9C14.174 9 12.389 9.552 10.97 10.555C8.239 12.486 6.262 15.311 6.179 15.43C6.06265 15.5975 6.0003 15.7966 6.0003 16.0005C6.0003 16.2044 6.06265 16.4035 6.179 16.571C6.262 16.69 8.239 19.515 10.97 21.446C12.389 22.448 14.175 23 16 23C17.825 23 19.612 22.448 21.028 21.445C23.759 19.514 25.738 16.689 25.821 16.57C25.9371 16.4026 25.9994 16.2037 25.9994 16C25.9994 15.7963 25.9371 15.5974 25.821 15.43ZM16 19.5C14.066 19.5 12.5 17.93 12.5 16C12.5 14.066 14.066 12.5 16 12.5C17.93 12.5 19.5 14.066 19.5 16C19.5 17.93 17.93 19.5 16 19.5ZM18 16C18 17.102 17.102 18 16 18C15.6044 18 15.2178 17.8827 14.8889 17.6629C14.56 17.4432 14.3036 17.1308 14.1522 16.7654C14.0009 16.3999 13.9613 15.9978 14.0384 15.6098C14.1156 15.2219 14.3061 14.8655 14.5858 14.5858C14.8655 14.3061 15.2219 14.1156 15.6098 14.0384C15.9978 13.9613 16.3999 14.0009 16.7654 14.1522C17.1308 14.3036 17.4432 14.56 17.6629 14.8889C17.8827 15.2178 18 15.6044 18 16Z" fill="black"/>
</svg>
