<svg width="32" height="32" viewBox="0 0 32 32" fill="none" xmlns="http://www.w3.org/2000/svg">
<circle opacity="0.5" cx="16" cy="16" r="16" fill="white"/>
<path d="M5 23V9H14.0919V11.4404H7.85274V14.7764H13.6241V17.2168H7.85274V20.5596H14.1182V23H5Z" fill="black"/>
<path d="M16.3599 23V9H21.6832C22.7022 9 23.5719 9.18913 24.2922 9.56738C25.0169 9.94108 25.5681 10.472 25.9459 11.1602C26.328 11.8437 26.5191 12.6481 26.5191 13.5732C26.5191 14.5029 26.3258 15.3027 25.9393 15.9727C25.5528 16.638 24.9928 17.1484 24.2593 17.5039C23.5302 17.8594 22.6473 18.0371 21.6108 18.0371H18.0465V15.6582H21.1496C21.6942 15.6582 22.1466 15.5807 22.5068 15.4258C22.8669 15.2708 23.1349 15.0384 23.3105 14.7285C23.4906 14.4186 23.5807 14.0335 23.5807 13.5732C23.5807 13.1084 23.4906 12.7165 23.3105 12.3975C23.1349 12.0785 22.8647 11.8369 22.5002 11.6729C22.14 11.5042 21.6854 11.4199 21.1364 11.4199H19.2126V23H16.3599ZM23.6466 16.6289L27 23H23.8508L20.5698 16.6289H23.6466Z" fill="black"/>
</svg>
